<svg xmlns="http://www.w3.org/2000/svg" width="26.014" height="26.014" viewBox="0 0 26.014 26.014"><defs><style>.a{fill:#f6f6f6;}</style></defs><path class="a" d="M13.007,3.049V5.081H10.975V3.049Zm-2.032,11.94v2.9h2.032v-2.9Zm6.1,11.025V23.982H15.039V21.949H13.007v4.065Zm4.065-15.09h-6.1v2.032h6.1Zm0,4.065h2.845V12.956H21.136Zm0,2.9v2.032h4.878V14.988H23.982v2.9ZM15.039,0H13.007V3.049h2.032ZM13.007,9.146h2.032V5.081H13.007V7.113H10.975v5.843h2.032ZM0,10.924v4.065H2.032V12.956H5.081V10.924Zm15.039,4.065V12.956H13.007v2.032ZM19.1,17.021h2.032V14.988H19.1Zm4.878-4.065h2.032V10.924H23.982Zm-6.91,2.032H15.039v2.9H13.007v2.032h4.065Zm-6.1,6.961h2.032V19.917H10.975Zm6.1-2.032v2.032h4.065V19.917Zm6.1,4.065V21.949H21.136v2.032Zm2.845,2.032V23.982H23.169v2.032Zm-6.91,0h2.032V23.982H19.1ZM9.146,12.956V10.924H7.113v2.032H5.081v2.032h5.894V12.956Zm0-3.811H0V0H9.146ZM7.113,2.032H2.032V7.113H7.113ZM5.589,3.557H3.557V5.589H5.589ZM26.014,0V9.146H16.868V0ZM23.982,2.032H18.9V7.113h5.081ZM22.457,3.557H20.425V5.589h2.032ZM0,16.868H9.146v9.146H0Zm2.032,7.113H7.113V18.9H2.032Zm1.524-1.524H5.589V20.425H3.557Zm0,0"/></svg>