<svg xmlns="http://www.w3.org/2000/svg" width="64.485" height="51.1" viewBox="0 0 64.485 51.1"><defs><style>.a{fill:#b6b6bb;}</style></defs><g transform="translate(-2619 -696)"><g transform="translate(2619 696)"><path class="a" d="M-260.771-1.729c3.15,0,13.935.661,23.49,6.18-7.327-7.025-19.256-9.217-23.734-9.331l.034-.009a36.094,36.094,0,0,1,13.488.151,14.89,14.89,0,0,0,1.009-8.839,9.2,9.2,0,0,1-2.5,3.528c-2.446,2.06-8.014,2.186-12.532,1.708-2.971-.314-4.983-1.425-5.882-2.764-1.018-1.516-1.168-2.674-2.6-2.56-.925.073-1.471.916-2.1,1.909-.419,1.706-1.29,5.114-.289,6.139,1.32,1.352,7.555.268,7.555.268.153,1.227-3.222,4.641-4.641,4.679s-4.681-2.847-5.261-3.815c-.677-1.129-.494-2.612-.1-4.581a14.492,14.492,0,0,1-5.811,1.16c-4.773.163-8.794.012-11.394-3.362a12.3,12.3,0,0,1-2.259-9.755c.3-1.372,1.492-2.154,4.773-2.154,1.775,0,7.7.137,13.606.137,3.3,0,4.088,1.205,5.956,1.223,1.816.018,1.7-1.122,4.8-1.122.661,0,1.244.005,1.726.005,5.328,0,14.407-.122,15.771.081,1.226.183,2.379,1.783,2.26,4.555,0-.019.007-.041.009-.06a10.923,10.923,0,0,0,.074-2.2,2.534,2.534,0,0,1,2.686,1.05,2.5,2.5,0,0,0-2.953-2.6c-.417-1.423-1.223-2.245-2.062-2.379a13.587,13.587,0,0,0-1.372-.086c1.557-4.356,2.776-10.043,1.089-14.848-2.173.186-7.017,2.235-11.984,7.513a31.265,31.265,0,0,0-5.543-1.249c.445-.546,1.1-1.377,1.979-2.569a14.794,14.794,0,0,0-6.955,2.32c.478-1.694,1.374-3.087,4.176-4.943-1.062,0-8.845.509-13.55,6.44-4.968-5.278-9.811-7.327-11.984-7.513-1.51,4.3-.617,9.846.935,14.575h-.211c-3.4,0-4.638.869-4.953,2.39-.066.322-.123.687-.166,1.087-2.606-.015-2.656,1.552-2.419,2.829a2.779,2.779,0,0,1,2.329-1,15.371,15.371,0,0,0,2.5,8.743,8.959,8.959,0,0,0,3.66,3.027,5.48,5.48,0,0,1-3.225-.764,18.068,18.068,0,0,0,1.05,3.654c4.476-.664,9.557-1.274,13.747-.125a1.46,1.46,0,0,1-.258.128c-4.4.119-15.926,1.911-22.969,9.329,7.7-4.6,16.573-7.025,23.94-6.172-.377.085-.786.206-1.213.348-4.714,1.056-14.51,4.1-21.579,12.076,6.092-4.172,13.377-8.1,23.376-9.412-2.583,1.043-8.586,2.838-13.277,9.92a31.639,31.639,0,0,1,8.3-5.166c.213.147,1.626,1.142,1.832,1.28A11.233,11.233,0,0,0-270.062,3.32a9.2,9.2,0,0,0,5.632,3.736c-1.952,1.227-3.68.948-5.8-.279a20.684,20.684,0,0,1-5.933,3.052,15.614,15.614,0,0,0,5.3,1.8,9.95,9.95,0,0,0,2.143-.014c1.568-.183,5.263-.85,11.049-5.6a37.786,37.786,0,0,1,8.88,4.864c-3.5-5.491-12.278-9.26-13.339-9.544A61.06,61.06,0,0,1-238.429,10.7C-244.963,3.5-256.46-.67-260.771-1.729Zm9.411-34.7c-1.572,3-3.605,6.249-3.95,8.21a10.853,10.853,0,0,0-2.378-2.334A15.258,15.258,0,0,1-251.361-36.426Zm-32,7.841a35.633,35.633,0,0,0-4,3.785l-1.989-.031a41.95,41.95,0,0,1,2.373-4.055,52.963,52.963,0,0,0-3.015-7.539A43.634,43.634,0,0,1-283.357-28.585Z" transform="translate(301.766 39.423)"/></g><g transform="translate(2629.075 714.711)"><g transform="translate(0 0.283)"><g transform="translate(0 2.809)"><path class="a" d="M69.157,49.517a9.628,9.628,0,0,0,.14,1.28H86.962a11.172,11.172,0,0,0,.175-1.28Z" transform="translate(-69.157 -49.517)"/></g><g transform="translate(0.536 5.551)"><path class="a" d="M69.9,53.327a6.882,6.882,0,0,0,.633,1.28H86.227a8.17,8.17,0,0,0,.557-1.28Z" transform="translate(-69.902 -53.327)"/></g><g transform="translate(2.468 8.293)"><path class="a" d="M72.587,57.137a4.773,4.773,0,0,0,2.568,1.069c2.309.177,6.923.7,9.65-.422a3.752,3.752,0,0,0,1.028-.647Z" transform="translate(-72.587 -57.137)"/></g><g transform="translate(0.141)"><path class="a" d="M87.066,46.96c-.24-.7-.828-1.2-2.121-1.287-1.917-.125-11.6-.011-13.087-.04a2.417,2.417,0,0,0-2.505,1.327Z" transform="translate(-69.353 -45.614)"/></g></g><g transform="translate(24.912 0)"><g transform="translate(0.596 5.688)"><path class="a" d="M104.6,53.124a7.859,7.859,0,0,0,.589,1.28h15.534a6.926,6.926,0,0,0,.664-1.28Z" transform="translate(-104.602 -53.124)"/></g><g transform="translate(0 2.946)"><path class="a" d="M103.774,49.314a11.39,11.39,0,0,0,.19,1.28h17.615a9.521,9.521,0,0,0,.162-1.28Z" transform="translate(-103.774 -49.314)"/></g><g transform="translate(0.072)"><path class="a" d="M121.677,46.7a2.368,2.368,0,0,0-2.549-1.455c-1.482.028-11.17-.1-13.087.027-1.38.089-1.957.661-2.166,1.428Z" transform="translate(-103.874 -45.22)"/></g><g transform="translate(2.418 8.43)"><path class="a" d="M107.134,56.934a3.743,3.743,0,0,0,.859.507c2.726,1.127,7.341.606,9.65.431a4.723,4.723,0,0,0,2.4-.938Z" transform="translate(-107.134 -56.934)"/></g></g></g></g></svg>