<svg xmlns="http://www.w3.org/2000/svg" width="228.533" height="171.695" viewBox="0 0 228.533 171.695"><defs><style>.a{fill:#e6e6e6;}.b{fill:#3f3d56;}.c{fill:#fff;}.d{fill:#ffab3d;}.e{fill:#2f2e41;}.f{fill:#577bf9;}</style></defs><g transform="translate(0 0)"><path class="a" d="M274.266,739.473c0,2.624-24.02,2.9-53.583,4.751-29.536,1.846-53.584-2.127-53.584-4.751s24.159-7.9,53.584-4.751C250.246,737.889,274.266,736.849,274.266,739.473Z" transform="translate(-167.099 -573.003)"/><path class="b" d="M697.08,124.769H633.568A13.5,13.5,0,0,0,620.4,135.3L588.306,277.645a10.912,10.912,0,0,0,10.108,13.3L663.7,294.16a14.416,14.416,0,0,0,14.9-11.833l18.2-100.639,1.354.387L701.641,163l-1.394-.349,5.081-28.092a8.313,8.313,0,0,0-8.249-9.792Z" transform="translate(-476.928 -124.769)"/><path class="c" d="M659.845,136.395h-7.414a9.33,9.33,0,0,0-9.116,7.342l-30.8,141.183a5.782,5.782,0,0,0,5.271,7l65.08,4.265a7.488,7.488,0,0,0,7.859-6.144l26.285-145.926a6.558,6.558,0,0,0-6.454-7.721h-7.033a3.1,3.1,0,0,0-2.989,2.29h0a2.732,2.732,0,0,1-2.638,2.022H664.5a4.671,4.671,0,0,1-4.657-4.313Z" transform="translate(-494.844 -133.326)"/><path class="d" d="M528.288,401.938l5.738,11.36,17.158,7.8c1.832,3.1,7.655,3.334,8.078,1.331.475-2.246-7.07-5.862-7.07-5.862l-14.351-9.707-1.256-8.356Z" transform="translate(-432.949 -326.25)"/><path class="d" d="M360.8,575.559l-1.058,8.466,6.138.423.635-8.889Z" transform="translate(-264.787 -423.636)"/><path class="e" d="M523.342,716.348a16.626,16.626,0,0,1-1.515-1.852c-.88-1.217-1.66,5.027-1.66,5.027a11.33,11.33,0,0,0-.635,3.81c.212,1.27,5.08,1.27,5.926,1.058a40.026,40.026,0,0,1,5.08,0h6.349c5.5-2.54,0-4.233,0-4.233-1.693-.212-7.408-5.5-7.408-5.5l-1.27-2.328c-.847-.212-1.693,2.963-1.693,2.963Z" transform="translate(-426.48 -557.229)"/><path class="d" d="M300.666,575.96l-1.059,8.466,6.138.423.635-8.889Z" transform="translate(-220.523 -423.931)"/><path class="e" d="M463.205,716.75a16.611,16.611,0,0,1-1.514-1.852c-.88-1.217-1.66,5.027-1.66,5.027a9.816,9.816,0,0,0-.635,3.6c.212,1.27,5.079,1.27,5.926,1.058a34.432,34.432,0,0,1,5.079.212h6.35c5.5-2.54,0-4.233,0-4.233-1.693-.212-7.408-5.5-7.408-5.5l-1.27-2.328c-.847-.212-1.693,2.963-1.693,2.963Z" transform="translate(-382.217 -557.524)"/><path class="e" d="M474.159,492.548c-.847,1.058-.423,4.656-.423,4.656s-1.482,11.641-.847,12.7-.423,1.9-1.058,3.386a33.81,33.81,0,0,0-1.27,5.079c-3.6,2.963-3.386,16.508-3.386,16.508l-1.27,12.064c.423,1.27,6.349,1.482,7.2,1.27s3.386-19.26,3.386-19.26l5.714-10.794s-.423,28.784-.423,30.054,5.715.635,6.984.635,1.27-21.165,1.27-21.165l1.27-5.5,6.773-25.186v-2.963l-1.058-1.482S475.006,491.489,474.159,492.548Z" transform="translate(-387.033 -395.123)"/><circle class="d" cx="6.561" cy="6.561" r="6.561" transform="translate(89.878 36.258)"/><path class="d" d="M520.687,298.615c-1.33,2.961-.542,7.1,2.117,11.641l-10.794-5.08,1.693-1.482-.423-4.233Z" transform="translate(-420.968 -252.727)"/><path class="f" d="M498.261,319.552a6.772,6.772,0,0,1,2.744,3.955,37.48,37.48,0,0,1,1.611,8.956l.513,9.1,6.349,24.128c-5.5,4.656-8.677,3.6-16.085-.212s-8.254,1.27-8.254,1.27-.635-.212,0-.847,0,0-.635-.635,0,0,.212-.635,0-.212-.212-.423.847-2.117.847-2.117l-1.693-15.874-2.116-22.435c2.54-3.175,9.736-5.926,9.736-5.926l6.561,4.656c2.116.847.423-2.54.423-2.54Z" transform="translate(-398.542 -266.892)"/><path class="d" d="M465.949,391.226l-.847,12.7,10.794,15.45c0,3.6,1.9,4.445,1.9,4.445a27.974,27.974,0,0,0,1.9-3.6,4.108,4.108,0,0,0-.635-4.233l-7.408-15.662,3.175-7.831Z" transform="translate(-386.442 -320.893)"/><path class="f" d="M470.139,339.494c-3.6,1.27-4.233,15.027-4.233,15.027,4.233-2.328,9.312,1.482,9.312,1.482s1.058-3.6,2.328-8.254a8.089,8.089,0,0,0-1.693-7.619S473.737,338.224,470.139,339.494Z" transform="translate(-387.033 -282.494)"/><path class="e" d="M506.8,263.569c.835-.668,1.975.546,1.975.546l.668-6.014a23.84,23.84,0,0,0,6.849-.167c2.673-.668,3.09,2.422,3.09,2.422a21.431,21.431,0,0,0,.083-3.759c-.167-1.5-2.339-3.007-6.181-4.009s-5.847,3.341-5.847,3.341C504.769,257.267,505.968,264.238,506.8,263.569Z" transform="translate(-416.396 -218.74)"/><path class="a" d="M738.31,283.725a.535.535,0,0,0,.545-.432l14.593-79.429a.528.528,0,0,0-.513-.623l-66.392-.773h-.006a.53.53,0,0,0-.515.412l-17.2,76.851a.528.528,0,0,0,.489.642Z" transform="translate(-536.376 -181.958)"/><path class="a" d="M710.784,529.535a.263.263,0,0,0-.257.2l-.613,2.628a.264.264,0,0,0,.238.323l34.639,2.462a.266.266,0,0,0,.278-.213l.59-3.04a.264.264,0,0,0-.243-.314l-34.616-2.05Z" transform="translate(-566.629 -422.694)"/><path class="a" d="M748.555,569.214a.265.265,0,0,0,.277-.2l.751-3.047a.264.264,0,0,0-.238-.327l-44.236-3.094a.261.261,0,0,0-.272.188l-.78,2.633a.264.264,0,0,0,.232.338Z" transform="translate(-562.315 -446.991)"/><path class="a" d="M739.555,606.214a.264.264,0,0,0,.277-.2l.751-3.047a.264.264,0,0,0-.238-.327l-44.236-3.094a.261.261,0,0,0-.271.188l-.78,2.633a.264.264,0,0,0,.232.338Z" transform="translate(-555.691 -474.225)"/><path class="f" d="M710.714,662.74a.261.261,0,0,0,.281-.2l1.587-6.349a.264.264,0,0,0-.234-.327l-27.166-2.285a.269.269,0,0,0-.28.206l-1.354,6.093a.264.264,0,0,0,.233.32Z" transform="translate(-547.223 -513.996)"/></g></svg>