<svg xmlns="http://www.w3.org/2000/svg" width="228.533" height="171.695" viewBox="0 0 333.423 252.622"><defs><style>.a{fill:none;}.b{fill:#2f2e41;}.c{fill:#fff;}.d{fill:#e6e6e6;}.e{fill:#577bf9;}.f{fill:#333;}.g{fill:#fda57d;}</style></defs><g transform="translate(107.4 -687.451)"><g transform="matrix(0.995, 0.105, -0.105, 0.995, -1899.394, -497.071)"><path class="a" d="M442.22,351" transform="translate(1708.435 678.814)"/><rect class="b" width="109.636" height="197.893" rx="10" transform="translate(2129.124 967.268) rotate(-0.14)"/><path class="c" d="M538.073,303.021a4.075,4.075,0,0,1-4.059,4.088l-93.68.227a4.075,4.075,0,0,1-4.081-4.067l-.064-27.526-.358-148.42a4.075,4.075,0,0,1,4.059-4.088l19.593-.046a8.7,8.7,0,0,0,8.572,7.382l37.019-.089a8.7,8.7,0,0,0,8.569-7.424l19.9-.049a4.075,4.075,0,0,1,4.081,4.067l.383,148.667Z" transform="translate(1697.27 850.756)"/><path class="d" d="M538.464,648.851a4.112,4.112,0,0,1-4.043,4.175l-93.294.232a4.11,4.11,0,0,1-4.064-4.152L437,621H538.4Z" transform="translate(1696.595 506.514)"/><rect class="c" width="24.432" height="1.528" rx="0.764" transform="translate(2170.822 974.534) rotate(-0.86)"/><circle class="c" cx="0.918" cy="0.918" r="0.918" transform="translate(2199.517 973.794) rotate(-0.86)"/><g transform="translate(2137.342 1134.061)"><rect class="e" width="20.041" height="20.041" rx="10.021"/><rect class="e" width="20.041" height="20.041" rx="10.021" transform="translate(24.739)"/><rect class="e" width="20.041" height="20.041" rx="10.021" transform="translate(49.477)"/><rect class="e" width="20.041" height="20.041" rx="10.021" transform="translate(74.216)"/></g><g transform="translate(2160.899 990.289)"><g transform="translate(0)"><path class="e" d="M-271.69-11.768a37.355,37.355,0,0,1,17.234,4.534c-5.376-5.154-14.128-6.762-17.413-6.846l.025-.007a26.481,26.481,0,0,1,9.9.111,10.924,10.924,0,0,0,.74-6.485,6.753,6.753,0,0,1-1.832,2.589c-1.795,1.511-5.88,1.6-9.194,1.253-2.18-.231-3.656-1.045-4.316-2.028-.747-1.112-.857-1.962-1.9-1.879-.679.054-1.079.672-1.539,1.4-.308,1.252-.947,3.752-.212,4.5.968.992,5.543.2,5.543.2.112.9-2.364,3.4-3.4,3.433s-3.434-2.089-3.86-2.8c-.5-.828-.363-1.916-.074-3.361a10.632,10.632,0,0,1-4.263.851c-3.5.119-6.452.008-8.359-2.467a9.028,9.028,0,0,1-1.657-7.157c.222-1.006,1.095-1.58,3.5-1.58,1.3,0,5.647.1,9.982.1,2.423,0,3,.884,4.37.9,1.333.013,1.251-.823,3.52-.823.485,0,.912,0,1.266,0,3.909,0,10.57-.089,11.571.06.9.134,1.745,1.308,1.658,3.342,0-.014.005-.03.007-.044a8.011,8.011,0,0,0,.054-1.616,1.859,1.859,0,0,1,1.97.77,1.835,1.835,0,0,0-2.166-1.908c-.306-1.044-.9-1.647-1.513-1.746a9.968,9.968,0,0,0-1.007-.063c1.143-3.2,2.036-7.368.8-10.894-1.594.137-5.148,1.64-8.792,5.512a22.939,22.939,0,0,0-4.067-.916c.326-.4.806-1.011,1.452-1.885a10.854,10.854,0,0,0-5.1,1.7c.351-1.243,1.008-2.265,3.064-3.626-.779,0-6.489.373-9.941,4.725-3.645-3.872-7.2-5.375-8.792-5.512-1.108,3.155-.452,7.224.686,10.693h-.155c-2.5,0-3.4.637-3.634,1.753-.049.236-.09.5-.122.8-1.912-.011-1.948,1.138-1.775,2.075a2.039,2.039,0,0,1,1.709-.731,11.277,11.277,0,0,0,1.837,6.414,6.574,6.574,0,0,0,2.685,2.221,4.021,4.021,0,0,1-2.366-.56,13.254,13.254,0,0,0,.77,2.681c3.284-.487,7.012-.935,10.085-.092a1.071,1.071,0,0,1-.19.094c-3.226.088-11.684,1.4-16.852,6.844,5.648-3.376,12.159-5.154,17.564-4.528-.277.062-.577.151-.89.256-3.459.775-10.646,3.008-15.832,8.86a38.14,38.14,0,0,1,17.15-6.9,18.255,18.255,0,0,0-9.741,7.278,23.212,23.212,0,0,1,6.091-3.79c.156.108,1.193.838,1.344.939a8.241,8.241,0,0,0,7.574-2.939,6.753,6.753,0,0,0,4.132,2.741c-1.432.9-2.7.7-4.255-.2a15.175,15.175,0,0,1-4.353,2.239A11.456,11.456,0,0,0-279.1-1.97a7.3,7.3,0,0,0,1.572-.01c1.15-.134,3.862-.624,8.107-4.111A27.723,27.723,0,0,1-262.9-2.522c-2.569-4.028-9.008-6.794-9.787-7A44.8,44.8,0,0,1-255.3-2.647C-260.091-7.93-268.527-10.991-271.69-11.768Zm6.9-25.456c-1.154,2.2-2.645,4.585-2.9,6.024a7.963,7.963,0,0,0-1.745-1.712A11.2,11.2,0,0,1-264.785-37.224Zm-23.475,5.752a26.144,26.144,0,0,0-2.937,2.777l-1.459-.023a30.771,30.771,0,0,1,1.741-2.975,38.864,38.864,0,0,0-2.212-5.531A32.013,32.013,0,0,1-288.26-31.472Z" transform="translate(301.766 39.423)"/></g><g transform="translate(7.392 13.727)"><g transform="translate(0 0.208)"><g transform="translate(0 2.061)"><path class="e" d="M69.157,49.517a7.066,7.066,0,0,0,.1.939H82.22a8.2,8.2,0,0,0,.128-.939Z" transform="translate(-69.157 -49.517)"/></g><g transform="translate(0.393 4.073)"><path class="e" d="M69.9,53.327a5.049,5.049,0,0,0,.465.939H81.879a5.994,5.994,0,0,0,.409-.939Z" transform="translate(-69.902 -53.327)"/></g><g transform="translate(1.811 6.084)"><path class="e" d="M72.587,57.137a3.5,3.5,0,0,0,1.884.784c1.694.13,5.079.515,7.08-.309a2.753,2.753,0,0,0,.754-.475Z" transform="translate(-72.587 -57.137)"/></g><g transform="translate(0.103)"><path class="e" d="M82.349,46.6c-.176-.51-.608-.882-1.556-.944-1.407-.092-8.514-.008-9.6-.03a1.774,1.774,0,0,0-1.838.974Z" transform="translate(-69.353 -45.614)"/></g></g><g transform="translate(18.277 0)"><g transform="translate(0.437 4.173)"><path class="e" d="M104.6,53.124a5.765,5.765,0,0,0,.432.939h11.4a5.082,5.082,0,0,0,.487-.939Z" transform="translate(-104.602 -53.124)"/></g><g transform="translate(0 2.162)"><path class="e" d="M103.774,49.314a8.355,8.355,0,0,0,.139.939h12.923a6.983,6.983,0,0,0,.119-.939Z" transform="translate(-103.774 -49.314)"/></g><g transform="translate(0.053)"><path class="e" d="M116.935,46.309a1.737,1.737,0,0,0-1.87-1.068c-1.088.021-8.2-.071-9.6.02-1.012.065-1.436.485-1.589,1.048Z" transform="translate(-103.874 -45.22)"/></g><g transform="translate(1.774 6.185)"><path class="e" d="M107.134,56.934a2.746,2.746,0,0,0,.63.372c2,.827,5.386.445,7.08.316a3.465,3.465,0,0,0,1.758-.688Z" transform="translate(-107.134 -56.934)"/></g></g></g></g><path class="f" d="M28.28,6.628v4.419H23.861V6.628Zm-4.419,25.96v6.3H28.28v-6.3ZM37.117,56.559V52.141H32.7V47.722H28.28v8.837ZM45.954,23.75H32.7v4.419H45.954Zm0,8.837h6.186V28.169H45.954Zm0,6.3V43.3h10.6V32.588H52.141v6.3ZM32.7,0H28.28V6.628H32.7ZM28.28,19.884H32.7V11.047H28.28v4.419H23.861v12.7H28.28ZM0,23.75v8.837H4.419V28.169h6.628V23.75Zm32.7,8.837V28.169H28.28v4.419Zm8.837,4.419h4.419V32.588H41.536Zm10.6-8.837h4.419V23.75H52.141ZM37.117,32.588H32.7v6.3H28.28V43.3h8.837ZM23.861,47.722H28.28V43.3H23.861ZM37.117,43.3v4.419h8.837V43.3Zm13.256,8.837V47.722H45.954v4.419Zm6.186,4.419V52.141H50.373v4.419Zm-15.024,0h4.419V52.141H41.536ZM19.884,28.169V23.75H15.465v4.419H11.047v4.419H23.861V28.169Zm0-8.285H0V0H19.884ZM15.465,4.419H4.419V15.465H15.465ZM12.151,7.733H7.733v4.419h4.419ZM56.559,0V19.884H36.675V0ZM52.141,4.419H41.094V15.465H52.141ZM48.827,7.733H44.408v4.419h4.419ZM0,36.675H19.884V56.559H0ZM4.419,52.141H15.465V41.094H4.419Zm3.314-3.314h4.419V44.408H7.733Zm0,0" transform="translate(2155.787 1041.981)"/></g><g transform="translate(-2745 -1040)"><path class="d" d="M370.991,744.641c0,4.992-45.7,5.524-101.946,9.04-56.193,3.512-101.946-4.047-101.946-9.04s45.963-15.038,101.946-9.04C325.291,741.628,370.991,739.648,370.991,744.641Z" transform="translate(2470.501 1236.493)"/><path class="g" d="M528.288,405.037l10.917,21.613,32.643,14.84c3.486,5.891,14.563,6.342,15.369,2.532.9-4.274-13.452-11.153-13.452-11.153l-27.3-18.468-2.389-15.9Z" transform="translate(2290.7 1403.378)"/><path class="g" d="M361.757,575.559l-2.013,16.107,11.678.805,1.208-16.912Z" transform="translate(2458.519 1377.898)"/><path class="b" d="M526.811,719.987a31.632,31.632,0,0,1-2.882-3.524c-1.674-2.316-3.158,9.564-3.158,9.564s-1.611,4.832-1.208,7.248,9.664,2.416,11.275,2.013,9.664,0,9.664,0h12.08c10.469-4.832,0-8.053,0-8.053-3.221-.4-14.094-10.47-14.094-10.47l-2.416-4.429c-1.611-.4-3.221,5.637-3.221,5.637Z" transform="translate(2295.076 1247.161)"/><path class="g" d="M301.621,575.96l-2.014,16.107,11.678.805,1.208-16.912Z" transform="translate(2488.455 1377.698)"/><path class="b" d="M466.674,720.388a31.59,31.59,0,0,1-2.881-3.524c-1.674-2.316-3.159,9.564-3.159,9.564s-1.611,4.429-1.208,6.845,9.664,2.416,11.275,2.014,9.664.4,9.664.4h12.08c10.469-4.832,0-8.054,0-8.054-3.221-.4-14.094-10.469-14.094-10.469l-2.416-4.429c-1.611-.4-3.221,5.637-3.221,5.637Z" transform="translate(2325.012 1246.961)"/><path class="b" d="M481.609,492.972c-1.611,2.013-.805,8.859-.805,8.859s-2.819,22.147-1.611,24.161-.805,3.624-2.013,6.443-2.416,9.664-2.416,9.664c-6.845,5.637-6.443,31.408-6.443,31.408L465.9,596.459c.805,2.416,12.08,2.819,13.691,2.416s6.443-36.643,6.443-36.643L496.911,541.7s-.805,54.764-.805,57.18,10.872,1.208,13.288,1.208,2.416-40.267,2.416-40.267l2.416-10.47,12.886-47.918v-5.637l-2.013-2.819S483.22,490.959,481.609,492.972Z" transform="translate(2321.755 1356.797)"/><circle class="g" cx="12.483" cy="12.483" r="12.483" transform="translate(2808.599 1733.396)"/><path class="g" d="M528.519,298.615c-2.53,5.634-1.032,13.5,4.027,22.147L512.009,311.1l3.221-2.819-.805-8.053Z" transform="translate(2298.804 1453.103)"/><path class="e" d="M513.352,321.081c2.689,1.6,4.3,4.536,5.221,7.525a71.307,71.307,0,0,1,3.065,17.039l.975,17.313,12.08,45.9c-10.469,8.859-16.51,6.845-30.6-.4s-15.7,2.416-15.7,2.416-1.208-.4,0-1.611,0,0-1.208-1.208,0,0,.4-1.208,0-.4-.4-.805,1.611-4.027,1.611-4.027l-3.221-30.2-4.027-42.683c4.832-6.04,18.523-11.275,18.523-11.275l12.483,8.859c4.027,1.611.805-4.832.805-4.832Z" transform="translate(2313.971 1443.523)"/><path class="g" d="M466.714,391.226l-1.611,24.16,20.536,29.4c0,6.845,3.624,8.456,3.624,8.456a53.222,53.222,0,0,0,3.624-6.845,7.816,7.816,0,0,0-1.208-8.053l-14.094-29.8,6.04-14.9Z" transform="translate(2322.154 1407.001)"/><path class="e" d="M473.959,339.888c-6.846,2.416-8.053,28.59-8.053,28.59,8.053-4.429,17.718,2.819,17.718,2.819s2.013-6.845,4.429-15.7a15.389,15.389,0,0,0-3.221-14.5S480.8,337.472,473.959,339.888Z" transform="translate(2321.755 1432.971)"/><path class="b" d="M507.71,273.615c1.589-1.271,3.757,1.04,3.757,1.04l1.271-11.442s7.946.953,13.031-.318,5.88,4.609,5.88,4.609a40.777,40.777,0,0,0,.159-7.151c-.318-2.86-4.449-5.721-11.759-7.628s-11.124,6.357-11.124,6.357C503.839,261.624,506.121,274.887,507.71,273.615Z" transform="translate(2301.896 1476.089)"/></g></g></svg>