<svg xmlns="http://www.w3.org/2000/svg" width="107" height="44.378" viewBox="0 0 107 44.378"><defs><style>.a{fill:#f6f6f6;fill-rule:evenodd;}</style></defs><g transform="translate(0 -0.667)"><path class="a" d="M11.181,20.629c-2.306-.853-3.569-1.516-3.569-2.558,0-.885.727-1.39,2.022-1.39a15.539,15.539,0,0,1,6.475,1.737l.948-5.843a18.208,18.208,0,0,0-7.8-1.674,10,10,0,0,0-6.443,1.99,7.079,7.079,0,0,0-2.5,5.685c0,4.3,2.622,6.128,6.886,7.675,2.748.979,3.664,1.674,3.664,2.748,0,1.042-.885,1.642-2.5,1.642A17.4,17.4,0,0,1,.948,28.4L0,34.306a19.253,19.253,0,0,0,8.781,2.116A10.719,10.719,0,0,0,15.509,34.5a7.334,7.334,0,0,0,2.685-6.1c0-4.391-2.685-6.222-7.012-7.77Zm22.438-3.443.948-5.812h-5V4.319L22.838,5.426l-.971,5.948-2.366.384-.885,5.428h3.241v11.4c0,2.969.758,5.022,2.306,6.285,1.3,1.042,3.158,1.548,5.78,1.548a14.544,14.544,0,0,0,4.106-.569V29.694a10.778,10.778,0,0,1-2.274.348c-1.548,0-2.211-.79-2.211-2.59V17.186h4.055Zm15.023-6.151a4.672,4.672,0,0,0-4.675,3.245l-.474-2.906H36.639V35.948h7.833V20c.979-1.2,2.369-1.634,4.264-1.634a7.5,7.5,0,0,1,1.39.095V11.225A6.381,6.381,0,0,0,48.642,11.035ZM55.97,8.942A4.138,4.138,0,1,0,51.832,4.8,4.125,4.125,0,0,0,55.97,8.942Zm-3.948,2.432h7.865V35.948H52.021Zm30.152,2.211a6.88,6.88,0,0,0-5.78-2.685,8.155,8.155,0,0,0-6.128,2.937l-.411-2.464H62.97v33.67L70.8,43.75v-7.9a11.967,11.967,0,0,0,3.538.569,9.345,9.345,0,0,0,7.012-2.906c2.116-2.306,3.19-5.875,3.19-10.581,0-4.169-.79-7.328-2.369-9.349ZM75.667,28.746a3.075,3.075,0,0,1-2.748,1.832A4.635,4.635,0,0,1,70.8,30.1V18.418a4.262,4.262,0,0,1,2.969-1.548c1.99,0,2.969,2.148,2.969,6.349a11.351,11.351,0,0,1-1.074,5.527ZM107,23.44c0-3.917-.853-7.012-2.527-9.191A9,9,0,0,0,96.956,10.9c-6.665,0-10.8,4.927-10.8,12.824,0,4.422,1.105,7.739,3.285,9.855,1.958,1.9,4.77,2.843,8.4,2.843a15.871,15.871,0,0,0,8.4-2.085l-.853-5.369a13.9,13.9,0,0,1-6.7,1.611,4.785,4.785,0,0,1-3.316-.979,4.93,4.93,0,0,1-1.453-3.443h12.982c.031-.379.095-2.148.095-2.716ZM93.86,21.355c.221-3.506,1.169-5.148,2.969-5.148,1.769,0,2.685,1.674,2.811,5.148Z" transform="translate(0 0)"/></g></svg>