<svg xmlns="http://www.w3.org/2000/svg" width="30" height="30" viewBox="0 0 30 30"><defs><style>.a{fill:#8c8c8d;}</style></defs><path class="a" d="M15,0A15,15,0,1,0,30,15,15.017,15.017,0,0,0,15,0Zm0,28.026A13.026,13.026,0,1,1,28.026,15,13.041,13.041,0,0,1,15,28.026Z"/><path class="a" d="M78.014,37.914v-5.6a2.839,2.839,0,0,1,1.385,1.1.987.987,0,1,0,1.649-1.086,4.8,4.8,0,0,0-3.033-2.065V28.693a.987.987,0,1,0-1.974,0v1.565a4.815,4.815,0,0,0,0,9.427v5.6a2.839,2.839,0,0,1-1.385-1.1.987.987,0,1,0-1.649,1.086,4.8,4.8,0,0,0,3.033,2.065v1.568a.987.987,0,1,0,1.974,0V47.341a4.815,4.815,0,0,0,0-9.427Zm-3.831-2.942A2.843,2.843,0,0,1,76.04,32.31v5.323A2.843,2.843,0,0,1,74.183,34.971Zm3.831,10.317V39.966a2.836,2.836,0,0,1,0,5.323Z" transform="translate(-62.027 -23.799)"/></svg>