<svg xmlns="http://www.w3.org/2000/svg" width="27.067" height="27.067" viewBox="0 0 27.067 27.067">
  <path id="qr_1_" data-name="qr (1)" d="M13.533,3.172V5.286H11.419V3.172ZM11.419,15.6v3.013h2.115V15.6Zm6.344,11.472V24.952H15.648V22.837H13.533v4.229Zm4.229-15.7H15.648V13.48h6.344Zm0,4.229h2.96V13.48h-2.96Zm0,3.013v2.115h5.075V15.6H24.952v3.013ZM15.648,0H13.533V3.172h2.115ZM13.533,9.516h2.115V5.286H13.533V7.4H11.419V13.48h2.115ZM0,11.366V15.6H2.115V13.48H5.286V11.366ZM15.648,15.6V13.48H13.533V15.6Zm4.229,2.115h2.115V15.6H19.877Zm5.075-4.229h2.115V11.366H24.952ZM17.762,15.6H15.648v3.013H13.533v2.115h4.229Zm-6.344,7.242h2.115V20.723H11.419Zm6.344-2.115v2.115h4.229V20.723Zm6.344,4.229V22.837H21.992v2.115Zm2.96,2.115V24.952h-2.96v2.115Zm-7.19,0h2.115V24.952H19.877ZM9.516,13.48V11.366H7.4V13.48H5.286V15.6h6.132V13.48Zm0-3.965H0V0H9.516ZM7.4,2.115H2.115V7.4H7.4ZM5.815,3.7H3.7V5.815H5.815ZM27.067,0V9.516H17.551V0ZM24.952,2.115H19.666V7.4h5.286ZM23.366,3.7H21.252V5.815h2.115ZM0,17.551H9.516v9.516H0Zm2.115,7.4H7.4V19.666H2.115ZM3.7,23.366H5.815V21.252H3.7Zm0,0" fill="#577BF9"/>
</svg>